<?xml version="1.0" encoding="utf-8"?>
<!-- Generator: Adobe Illustrator 16.0.0, SVG Export Plug-In . SVG Version: 6.00 Build 0)  -->
<!DOCTYPE svg PUBLIC "-//W3C//DTD SVG 1.1//EN" "http://www.w3.org/Graphics/SVG/1.1/DTD/svg11.dtd">
<svg version="1.1" id="Layer_1" xmlns="http://www.w3.org/2000/svg" xmlns:xlink="http://www.w3.org/1999/xlink" x="0px" y="0px"
	 width="300px" height="350px" viewBox="5.917 9.068 300 350" enable-background="new 5.917 9.068 300 350" xml:space="preserve">
<path d="M295.382,297.246c-1.048,0-2.058,0.156-3.014,0.439l-27.282-42.816c1.675-1.852,2.704-4.301,2.704-6.986
	c0-5.782-4.717-10.47-10.535-10.47c-5.546,0-10.078,4.259-10.494,9.662l-58.689,16.451v0.002c-1.828-3.095-5.205-5.175-9.077-5.175
	c-3.494,0-6.582,1.698-8.499,4.301l-40.476-17.268c0.196-0.8,0.312-1.63,0.312-2.487c0-5.782-4.716-10.471-10.535-10.471
	c-0.595,0-1.174,0.063-1.742,0.154c0,0,0.001,0,0.002,0l-15.703-40.39c2.376-1.92,3.897-4.845,3.897-8.126s-1.521-6.209-3.897-8.126
	l15.703-40.388c0,0,0,0-0.001,0c0.567,0.093,1.146,0.154,1.74,0.154c5.819,0,10.535-4.687,10.535-10.47
	c0-0.858-0.115-1.688-0.312-2.486l40.475-17.27c1.917,2.604,5.005,4.301,8.499,4.301c3.874,0,7.249-2.082,9.079-5.176
	c0,0,0,0,0,0.001l58.688,16.451c0.416,5.405,4.95,9.664,10.494,9.664c5.82,0,10.535-4.686,10.535-10.47
	c0-2.688-1.027-5.132-2.702-6.986l27.282-42.813c0.956,0.283,1.966,0.439,3.014,0.439c5.818,0,10.535-4.687,10.535-10.47
	c0-5.783-4.717-10.47-10.535-10.47c-2.947,0-5.608,1.206-7.521,3.145l0,0l-50.502-31l0,0c0.208-0.819,0.331-1.673,0.331-2.558
	c0-5.783-4.717-10.47-10.535-10.47c-4.587,0-8.479,2.918-9.923,6.983c0-0.001,0-0.002,0-0.003H150.79c0,0.001,0,0.002,0.001,0.003
	c-1.446-4.065-5.336-6.983-9.924-6.983c-5.819,0-10.535,4.687-10.535,10.47c0,0.659,0.068,1.3,0.186,1.926l-63.721,38.31
	c-1.884-1.758-4.413-2.842-7.201-2.842c-5.819,0-10.535,4.687-10.535,10.47c0,2.825,1.13,5.382,2.959,7.266
	c-0.001,0-0.001-0.001-0.002-0.001l-34.148,63.141c-0.465-0.063-0.936-0.106-1.417-0.106c-5.819,0-10.535,4.687-10.535,10.47
	c0,4.56,2.936,8.426,7.026,9.863c-0.001,0-0.002,0-0.003-0.001v52.07c0.001,0,0.002,0,0.003,0c-4.091,1.436-7.026,5.303-7.026,9.863
	c0,5.783,4.716,10.47,10.535,10.47c0.481,0,0.952-0.043,1.417-0.104l34.148,63.14c0,0,0.001-0.001,0.002-0.001
	c-1.829,1.885-2.959,4.439-2.959,7.266c0,5.783,4.716,10.47,10.535,10.47c2.788,0,5.316-1.085,7.201-2.842l63.721,38.31
	c-0.118,0.625-0.186,1.267-0.186,1.924c0,5.784,4.716,10.47,10.535,10.47c4.588,0,8.479-2.917,9.924-6.981c0,0,0,0.002-0.001,0.002
	h66.442v-0.002c1.441,4.066,5.333,6.981,9.923,6.981c5.818,0,10.535-4.686,10.535-10.47c0-0.884-0.123-1.737-0.331-2.557l0,0
	l50.502-31l0,0c1.913,1.938,4.574,3.144,7.521,3.144c5.818,0,10.535-4.686,10.535-10.47
	C305.917,301.932,301.2,297.246,295.382,297.246z M257.255,243.399c2.489,0,4.515,2.015,4.515,4.487s-2.025,4.487-4.515,4.487
	c-2.488,0-4.515-2.015-4.515-4.487S254.767,243.399,257.255,243.399z M250.502,255.921L250.502,255.921l-24.074,82.246
	c-0.726,0.048-1.429,0.169-2.104,0.354h0.002c-13.229-22.458-28.933-49.179-37.085-63.188h-0.002
	c1.329-1.658,2.154-3.727,2.266-5.986l58.527-16.405C248.664,254.08,249.505,255.091,250.502,255.921z M178.994,264.34
	c2.489,0,4.516,2.014,4.516,4.487c0,2.473-2.026,4.487-4.516,4.487c-2.488,0-4.515-2.015-4.515-4.487
	C174.479,266.354,176.506,264.34,178.994,264.34z M140.95,338.134l-16.5-85.852c0.912-0.447,1.748-1.021,2.487-1.7l0,0
	l41.549,17.729c-0.01,0.172-0.027,0.342-0.027,0.515c0,2.883,1.172,5.49,3.067,7.383l0,0c-6.604,14.063-19.105,40.156-29.608,61.97
	c0,0,0,0,0.001,0C141.598,338.151,141.276,338.137,140.95,338.134z M124.311,242.901c0,2.473-2.025,4.487-4.515,4.487
	s-4.515-2.015-4.515-4.487c0-2.474,2.026-4.487,4.515-4.487S124.311,240.428,124.311,242.901z M112.634,235.237
	c-0.852,0.787-1.577,1.704-2.13,2.729c0-0.001,0.001-0.003,0.002-0.006L26.968,219.6c-0.013-0.35-0.041-0.692-0.086-1.031
	l60.087-28.664c-0.165-0.242-0.315-0.495-0.458-0.75c1.8,3.212,5.245,5.383,9.205,5.383c0.362,0,0.72-0.021,1.074-0.058
	L112.634,235.237L112.634,235.237z M18.96,158.33c2.151-0.522,4.042-1.697,5.447-3.308c0,0-0.001,0.001-0.001,0.002l60.777,28.993
	c0.001-0.301,0.019-0.6,0.045-0.895c-0.028,0.311-0.048,0.627-0.048,0.946c0,0.32,0.02,0.636,0.048,0.947
	c-0.026-0.296-0.044-0.595-0.045-0.895l-60.777,28.993c0,0,0.001,0,0.001,0.002c-1.406-1.61-3.296-2.785-5.447-3.307V158.33z
	 M100.231,184.068c0,2.474-2.026,4.488-4.515,4.488s-4.515-2.015-4.515-4.488c0-2.473,2.025-4.487,4.515-4.487
	S100.231,181.596,100.231,184.068z M96.79,173.653c-0.354-0.035-0.711-0.054-1.074-0.054c-3.96,0-7.405,2.174-9.205,5.382
	c0.143-0.255,0.294-0.506,0.458-0.75l-60.087-28.663c0.046-0.34,0.074-0.684,0.086-1.034l83.538-18.362
	c-0.001-0.001-0.001-0.003-0.002-0.005c0.553,1.027,1.278,1.944,2.13,2.731l0,0L96.79,173.653z M119.796,129.724
	c-2.489,0-4.515-2.013-4.515-4.487c0-2.474,2.026-4.487,4.515-4.487s4.515,2.014,4.515,4.487
	C124.311,127.71,122.286,129.724,119.796,129.724z M113.165,117.106c0.002-0.002,0.004-0.003,0.007-0.005
	C113.169,117.102,113.167,117.103,113.165,117.106z M140.951,30.004c0.326-0.002,0.649-0.017,0.967-0.048h-0.001
	c10.504,21.814,23.007,47.908,29.609,61.97l0,0c-1.896,1.893-3.067,4.501-3.067,7.384c0,0.175,0.018,0.344,0.025,0.516
	l-41.548,17.727l0,0c-0.74-0.679-1.574-1.252-2.487-1.7L140.951,30.004z M169.086,102.841c0,0.002,0.002,0.005,0.002,0.008
	C169.088,102.847,169.086,102.843,169.086,102.841z M178.994,103.798c-2.488,0-4.515-2.014-4.515-4.487
	c0-2.474,2.026-4.487,4.515-4.487c2.489,0,4.516,2.013,4.516,4.487C183.51,101.784,181.483,103.798,178.994,103.798z
	 M248.031,115.197l-58.529-16.405c-0.111-2.26-0.937-4.331-2.268-5.991c0,0,0,0,0.002,0.001
	c8.152-14.006,23.857-40.728,37.089-63.186c0.676,0.188,1.379,0.308,2.103,0.357l24.076,82.244l0.002-0.001
	C249.507,113.044,248.664,114.055,248.031,115.197z M257.255,124.738c-2.488,0-4.515-2.013-4.515-4.487
	c0-2.474,2.026-4.487,4.515-4.487c2.489,0,4.515,2.013,4.515,4.487C261.77,122.725,259.744,124.738,257.255,124.738z
	 M295.382,55.934c2.489,0,4.515,2.013,4.515,4.487c0,2.474-2.025,4.487-4.515,4.487c-2.488,0-4.515-2.014-4.515-4.487
	C290.867,57.947,292.894,55.934,295.382,55.934z M285.047,58.401L285.047,58.401c-0.128,0.654-0.2,1.329-0.2,2.021
	c0,2.574,0.938,4.926,2.487,6.75l-27.383,42.97c-0.859-0.227-1.762-0.359-2.696-0.359c-0.684,0-1.349,0.07-1.995,0.193
	c0.272-0.052,0.543-0.094,0.819-0.125l-23.767-81.188l0,0c0.713-0.398,1.367-0.88,1.968-1.427l0,0L285.047,58.401z M286.075,55.518
	L286.075,55.518L286.075,55.518z M236.185,24.912c0-0.001,0-0.002,0.002-0.002C236.185,24.909,236.185,24.911,236.185,24.912z
	 M227.154,15.051c2.489,0,4.516,2.013,4.516,4.487c0,2.474-2.026,4.487-4.516,4.487c-2.488,0-4.515-2.014-4.515-4.487
	C222.64,17.064,224.666,15.051,227.154,15.051z M151.088,22.031h65.845c0.404,1.654,1.205,3.151,2.296,4.392
	c-4.7,7.978-11.643,19.773-18.585,31.591c-6.099,10.38-12.189,20.768-16.743,28.575c-0.566,0.973-1.104,1.891-1.619,2.778
	c0.002,0,0.004,0.001,0.004,0.002c-1.034-0.339-2.14-0.529-3.29-0.529c-0.744,0-1.472,0.08-2.173,0.226c0.002,0,0.002,0,0.004-0.001
	c-0.315-0.675-0.646-1.374-0.986-2.097c-3.216-6.829-7.736-16.33-13.438-28.239c-5.527-11.55-11.106-23.153-14.909-31.055
	c-0.205,0.165-0.417,0.321-0.633,0.471C148.94,26.71,150.468,24.55,151.088,22.031z M140.866,15.051
	c2.489,0,4.515,2.013,4.515,4.487c0,2.474-2.026,4.487-4.515,4.487s-4.515-2.014-4.515-4.487
	C136.352,17.064,138.377,15.051,140.866,15.051z M133.281,26.793c0.57,0.591,1.212,1.112,1.907,1.556
	c-0.014-0.009-0.03-0.017-0.044-0.026l-16.631,86.529c-0.942,0.114-1.848,0.348-2.696,0.693L69.029,72.043c0,0,0,0.001-0.001,0.001
	c0.7-1.4,1.103-2.973,1.103-4.643c0-0.85-0.112-1.67-0.305-2.459c0,0,0.001,0.001,0.001,0.002L133.281,26.793L133.281,26.793z
	 M59.596,62.914c2.489,0,4.515,2.014,4.515,4.487c0,2.474-2.026,4.487-4.515,4.487s-4.515-2.013-4.515-4.487
	C55.081,64.928,57.106,62.914,59.596,62.914z M57.263,77.605c0.751,0.169,1.531,0.266,2.333,0.266c1.947,0,3.766-0.534,5.331-1.45
	l46.165,42.92l0,0c-1.154,1.679-1.83,3.708-1.83,5.895c0-0.312,0.02-0.621,0.047-0.926l-83.86,18.431
	c-0.565-0.923-1.267-1.753-2.083-2.459L57.263,77.605z M16.452,143.684c2.489,0,4.515,2.014,4.515,4.487
	c0,2.474-2.026,4.487-4.515,4.487s-4.515-2.013-4.515-4.487C11.937,145.697,13.963,143.684,16.452,143.684z M11.937,219.967
	c0-2.474,2.026-4.487,4.515-4.487s4.515,2.014,4.515,4.487c0,2.473-2.026,4.487-4.515,4.487S11.937,222.44,11.937,219.967z
	 M23.365,227.854c0.816-0.705,1.518-1.535,2.083-2.458l83.86,18.431c-0.027-0.309-0.047-0.615-0.047-0.93
	c0,2.185,0.676,4.218,1.83,5.896l0,0l-46.165,42.922c-1.565-0.915-3.383-1.451-5.331-1.451c-0.802,0-1.582,0.101-2.333,0.271
	L23.365,227.854z M59.596,305.224c-2.489,0-4.515-2.015-4.515-4.487c0-2.474,2.026-4.487,4.515-4.487s4.515,2.014,4.515,4.487
	C64.111,303.209,62.085,305.224,59.596,305.224z M133.281,341.345L133.281,341.345l-63.455-38.15c0,0.001,0,0.002-0.001,0.002
	c0.193-0.79,0.305-1.611,0.305-2.46c0-1.671-0.403-3.243-1.103-4.644c0,0,0,0.002,0.001,0.002l46.79-43.5
	c0.848,0.345,1.752,0.578,2.696,0.691l16.631,86.529c0.014-0.01,0.031-0.02,0.044-0.026
	C134.492,340.232,133.852,340.754,133.281,341.345z M140.866,353.087c-2.489,0-4.515-2.015-4.515-4.487
	c0-2.474,2.025-4.487,4.515-4.487s4.515,2.014,4.515,4.487C145.381,351.072,143.355,353.087,140.866,353.087z M147.491,340.462
	c3.803-7.902,9.381-19.508,14.91-31.059c5.7-11.908,10.221-21.413,13.438-28.24c0.34-0.723,0.667-1.416,0.983-2.092
	c0,0-0.002,0-0.004,0c0.703,0.146,1.431,0.229,2.179,0.229c1.149,0,2.258-0.188,3.294-0.528c0,0-0.002,0.002-0.004,0.002
	c0.516,0.886,1.049,1.8,1.614,2.77c4.552,7.808,10.643,18.196,16.744,28.576c6.943,11.821,13.888,23.618,18.584,31.599
	c0-0.002,0.002-0.002,0.002-0.004c-1.093,1.242-1.895,2.74-2.3,4.395h-65.844C150.532,343.85,149.25,341.879,147.491,340.462z
	 M227.154,353.087c-2.488,0-4.515-2.015-4.515-4.487c0-2.474,2.026-4.487,4.515-4.487c2.489,0,4.516,2.014,4.516,4.487
	C231.67,351.072,229.644,353.087,227.154,353.087z M234.278,340.901L234.278,340.901c-0.598-0.546-1.255-1.028-1.968-1.428
	c0.002,0,0.002,0,0.002,0.002l23.767-81.187c0.388,0.043,0.778,0.066,1.178,0.066c0.935,0,1.834-0.133,2.696-0.356l27.383,42.969
	c-1.551,1.823-2.487,4.177-2.487,6.751c0,0.69,0.07,1.367,0.2,2.02l0,0L234.278,340.901z M295.382,312.203
	c-2.488,0-4.515-2.015-4.515-4.486c0-2.474,2.026-4.487,4.515-4.487c2.489,0,4.515,2.014,4.515,4.487
	C299.896,310.188,297.871,312.203,295.382,312.203z"/>
</svg>
