<?xml version="1.0" encoding="utf-8"?>
<!-- Generator: Adobe Illustrator 16.0.0, SVG Export Plug-In . SVG Version: 6.00 Build 0)  -->
<!DOCTYPE svg PUBLIC "-//W3C//DTD SVG 1.1//EN" "http://www.w3.org/Graphics/SVG/1.1/DTD/svg11.dtd">
<svg version="1.1" id="Layer_1" xmlns="http://www.w3.org/2000/svg" xmlns:xlink="http://www.w3.org/1999/xlink" x="0px" y="0px"
	 width="36px" height="42px" viewBox="0 0 36 42" enable-background="new 0 0 36 42" xml:space="preserve">
<path fill="#666" fill-rule="evenodd" clip-rule="evenodd" d="M34.74,36.38c-0.3,0-0.55-0.25-0.55-0.54c0-0.3,0.25-0.54,0.55-0.54
	c0.29,0,0.54,0.24,0.54,0.54C35.28,36.13,35.03,36.38,34.74,36.38z M27.4,39.82c-0.07-0.07-0.15-0.12-0.23-0.17l2.85-9.74h0.14
	c0.11,0,0.22-0.01,0.32-0.04l3.29,5.16c-0.19,0.22-0.3,0.5-0.3,0.81c0,0.08,0.01,0.16,0.03,0.24L27.4,39.82z M26.55,41.28
	c-0.3,0-0.54-0.24-0.54-0.54c0-0.29,0.24-0.54,0.54-0.54c0.3,0,0.54,0.25,0.54,0.54C27.09,41.04,26.85,41.28,26.55,41.28z
	 M16.99,39.32c0.45-0.95,1.12-1.89,1.79-3.28l1.61-3.39l0.12-0.25c0.08,0.02,0.17,0.03,0.26,0.03c0.14,0,0.27-0.03,0.39-0.07
	l0.2,0.34l2.01,3.42c0.83,1.42,1.63,2.75,2.19,3.71c0,0-0.04-0.03-0.09,0.17h-8.05C17.35,39.73,17.2,39.49,16.99,39.32z
	 M16.19,41.28c-0.29,0-0.54-0.24-0.54-0.54c0-0.29,0.25-0.54,0.54-0.54c0.3,0,0.54,0.25,0.54,0.54
	C16.73,41.04,16.49,41.28,16.19,41.28z M15.28,39.87l-7.61-4.58C7.69,35.2,7.71,35.1,7.71,35c0-0.2-0.05-0.39-0.14-0.56l5.62-5.22
	c0.1,0.04,0.21,0.07,0.32,0.09l2,10.38C15.43,39.74,15.35,39.8,15.28,39.87z M6.44,35.54c-0.3,0-0.54-0.24-0.54-0.54
	s0.24-0.54,0.54-0.54c0.3,0,0.54,0.24,0.54,0.54S6.74,35.54,6.44,35.54z M2.09,26.25c0.1-0.08,0.19-0.18,0.25-0.29l10.07,2.21
	l-0.01-0.11c0,0.26,0.08,0.5,0.22,0.71l-5.54,5.15c-0.19-0.11-0.4-0.18-0.64-0.18c-0.09,0-0.19,0.01-0.28,0.04L2.09,26.25z
	 M0.72,25.31c0-0.3,0.25-0.54,0.54-0.54c0.3,0,0.55,0.24,0.55,0.54c0,0.29-0.25,0.54-0.55,0.54C0.97,25.85,0.72,25.6,0.72,25.31z
	 M1.26,16.15c0.3,0,0.55,0.25,0.55,0.54c0,0.3-0.25,0.54-0.55,0.54c-0.29,0-0.54-0.24-0.54-0.54C0.72,16.4,0.97,16.15,1.26,16.15z
	 M6.16,8.22c0.09,0.02,0.19,0.04,0.28,0.04c0.24,0,0.45-0.07,0.64-0.18l5.54,5.15c-0.14,0.2-0.22,0.45-0.22,0.71l0.01-0.11
	L2.34,16.04c-0.06-0.11-0.15-0.21-0.25-0.29L6.16,8.22z M6.44,6.46c0.3,0,0.54,0.24,0.54,0.54S6.74,7.54,6.44,7.54
	C6.14,7.54,5.9,7.3,5.9,7S6.14,6.46,6.44,6.46z M15.28,2.13c0.07,0.07,0.15,0.13,0.23,0.18l-2,10.38c-0.11,0.02-0.22,0.05-0.32,0.09
	L7.57,7.56C7.66,7.39,7.71,7.2,7.71,7c0-0.1-0.02-0.2-0.04-0.29L15.28,2.13z M16.19,0.72c0.3,0,0.54,0.24,0.54,0.54
	c0,0.29-0.24,0.53-0.54,0.53c-0.29,0-0.54-0.24-0.54-0.53C15.65,0.96,15.9,0.72,16.19,0.72z M17.42,2h7.9
	c0.05,0.2,0.15-0.07,0.28,0.08l-2.23,3.79L21.36,9.3l-0.2,0.34c-0.12-0.04-0.25-0.07-0.39-0.07c-0.09,0-0.18,0.01-0.26,0.03
	l-0.12-0.25l-1.61-3.39l-1.79-3.73c-0.03,0.02-0.05,0.49-0.08,0.5C17.16,2.56,17.35,2.3,17.42,2z M26.55,0.72
	c0.3,0,0.54,0.24,0.54,0.54c0,0.29-0.24,0.53-0.54,0.53c-0.3,0-0.54-0.24-0.54-0.53C26.01,0.96,26.25,0.72,26.55,0.72z M33.5,5.92
	C33.48,6,33.47,6.08,33.47,6.16c0,0.31,0.11,0.59,0.3,0.81l-3.29,5.16c-0.1-0.03-0.21-0.04-0.32-0.04c-0.08,0-0.16,0-0.24,0.02
	l0.1-0.02l-2.85-9.74c0.08-0.05,0.16-0.1,0.23-0.17L33.5,5.92z M34.74,5.62c0.29,0,0.54,0.25,0.54,0.54c0,0.3-0.25,0.54-0.54,0.54
	c-0.3,0-0.55-0.24-0.55-0.54C34.19,5.87,34.44,5.62,34.74,5.62z M30.16,13.88c-0.3,0-0.54-0.24-0.54-0.54
	c0-0.29,0.24-0.54,0.54-0.54c0.3,0,0.54,0.25,0.54,0.54C30.7,13.64,30.46,13.88,30.16,13.88z M29.05,12.73l-7.02-1.96
	c-0.01-0.27-0.11-0.52-0.27-0.72c0.98-1.68,2.86-4.89,4.45-7.58c0.08,0.02,0.16,0.03,0.25,0.04l2.89,9.87
	C29.23,12.48,29.13,12.6,29.05,12.73z M20.77,11.37c-0.3,0-0.54-0.24-0.54-0.54c0-0.3,0.24-0.54,0.54-0.54s0.54,0.24,0.54,0.54
	C21.31,11.13,21.07,11.37,20.77,11.37z M16.2,2.51h0.12c1.26,2.61,2.76,5.75,3.55,7.43c-0.22,0.23-0.37,0.54-0.37,0.89l0.01,0.06
	l-4.99,2.13c-0.09-0.08-0.19-0.15-0.3-0.21L16.2,2.51z M13.67,14.48c-0.3,0-0.55-0.24-0.55-0.54c0-0.3,0.25-0.54,0.55-0.54
	c0.29,0,0.54,0.24,0.54,0.54C14.21,14.24,13.96,14.48,13.67,14.48z M10.9,19.75l-0.12-0.01c-0.48,0-0.89,0.26-1.11,0.65l0.06-0.09
	l-7.21-3.44l0.01-0.12l10.02-2.21c0.07,0.12,0.15,0.23,0.26,0.33L10.9,19.75z M11.32,21c0,0.3-0.25,0.54-0.54,0.54
	c-0.3,0-0.55-0.24-0.55-0.54s0.25-0.54,0.55-0.54C11.07,20.46,11.32,20.7,11.32,21z M2,17.91c0.26-0.06,0.48-0.2,0.65-0.4H2.22
	l7.29,3.48l0.01-0.1L9.51,21l0.01,0.11l-0.01-0.1l-7.29,3.47h0.43C2.48,24.29,2.26,24.15,2,24.09V17.91z M12.81,27.14
	c-0.11,0.09-0.19,0.2-0.26,0.33L2.53,25.26l-0.01-0.12l7.21-3.44l-0.06-0.09c0.22,0.39,0.63,0.65,1.11,0.65l0.12-0.01L12.81,27.14z
	 M14.21,28.06c0,0.3-0.25,0.54-0.54,0.54c-0.3,0-0.55-0.24-0.55-0.54c0-0.3,0.25-0.54,0.55-0.54
	C13.96,27.52,14.21,27.76,14.21,28.06z M16.2,39.49l-1.98-10.3c0.11-0.06,0.21-0.13,0.3-0.21l4.99,2.13l-0.01,0.06
	c0,0.35,0.15,0.66,0.37,0.89c-0.79,1.69-2.29,4.81-3.55,7.43H16.2z M20.77,30.63c0.3,0,0.54,0.24,0.54,0.54
	c0,0.3-0.24,0.54-0.54,0.54s-0.54-0.24-0.54-0.54C20.23,30.87,20.47,30.63,20.77,30.63z M29.35,29.62l-2.89,9.87
	c-0.09,0.01-0.17,0.02-0.25,0.04c-1.59-2.69-3.47-5.9-4.45-7.58c0.16-0.2,0.26-0.45,0.27-0.72l7.02-1.97
	C29.13,29.4,29.23,29.52,29.35,29.62z M30.16,28.12c0.3,0,0.54,0.24,0.54,0.54c0,0.29-0.24,0.54-0.54,0.54
	c-0.3,0-0.54-0.25-0.54-0.54C29.62,28.36,29.86,28.12,30.16,28.12z M34.74,34.58c-0.13,0-0.25,0.02-0.37,0.05L31.1,29.5
	c0.2-0.23,0.32-0.52,0.32-0.84c0-0.7-0.56-1.26-1.26-1.26c-0.66,0-1.21,0.51-1.26,1.16l-7.04,1.97c-0.22-0.37-0.63-0.62-1.09-0.62
	c-0.42,0-0.79,0.21-1.02,0.52l-4.86-2.07c0.03-0.1,0.04-0.2,0.04-0.3c0-0.69-0.57-1.26-1.26-1.26c-0.08,0-0.15,0.01-0.21,0.02
	l-1.89-4.85c0.29-0.23,0.47-0.58,0.47-0.97s-0.18-0.75-0.47-0.98l1.89-4.84c0.06,0.01,0.13,0.02,0.21,0.02
	c0.69,0,1.26-0.57,1.26-1.26c0-0.1-0.01-0.2-0.04-0.3l4.86-2.07c0.23,0.31,0.6,0.52,1.02,0.52c0.46,0,0.87-0.25,1.09-0.63l7.04,1.98
	c0.05,0.65,0.6,1.16,1.26,1.16c0.7,0,1.26-0.56,1.26-1.26c0-0.32-0.12-0.61-0.32-0.84l3.27-5.13c0.12,0.03,0.24,0.05,0.37,0.05
	c0.69,0,1.26-0.56,1.26-1.26c0-0.69-0.57-1.25-1.26-1.25c-0.36,0-0.68,0.14-0.91,0.37l-6.06-3.72c0.03-0.1,0.04-0.2,0.04-0.3
	c0-0.7-0.56-1.26-1.26-1.26C26,0,25.53,0.51,25.36,1h-7.97c-0.18-0.49-0.65-1-1.2-1c-0.69,0-1.26,0.56-1.26,1.26
	c0,0.08,0.01,0.15,0.02,0.23L7.31,6.08C7.08,5.87,6.78,5.74,6.44,5.74c-0.7,0-1.26,0.57-1.26,1.26c0,0.34,0.13,0.65,0.35,0.87
	l-4.1,7.58l-0.17-0.01C0.57,15.44,0,16,0,16.69c0,0.55,0.51,1.01,1,1.19v6.24c-0.49,0.18-1,0.64-1,1.19c0,0.69,0.57,1.25,1.26,1.25
	l0.17-0.01l4.1,7.58C5.31,34.35,5.18,34.66,5.18,35c0,0.69,0.56,1.26,1.26,1.26c0.34,0,0.64-0.14,0.87-0.34l7.64,4.59
	c-0.01,0.08-0.02,0.15-0.02,0.23c0,0.7,0.57,1.26,1.26,1.26c0.55,0,1.02-0.51,1.2-1h7.97c0.17,0.49,0.64,1,1.19,1
	c0.7,0,1.26-0.56,1.26-1.26c0-0.1-0.01-0.2-0.04-0.3l6.06-3.72c0.23,0.23,0.55,0.37,0.91,0.37c0.69,0,1.26-0.56,1.26-1.25
	C36,35.14,35.43,34.58,34.74,34.58z"/>
</svg>
