<?xml version="1.0" encoding="utf-8"?>
<!-- Generator: Adobe Illustrator 16.0.0, SVG Export Plug-In . SVG Version: 6.00 Build 0)  -->
<!DOCTYPE svg PUBLIC "-//W3C//DTD SVG 1.1//EN" "http://www.w3.org/Graphics/SVG/1.1/DTD/svg11.dtd">
<svg version="1.1"
	 id="svg1936" xmlns:dc="http://purl.org/dc/elements/1.1/" xmlns:cc="http://creativecommons.org/ns#" xmlns:rdf="http://www.w3.org/1999/02/22-rdf-syntax-ns#" xmlns:svg="http://www.w3.org/2000/svg" xmlns:sodipodi="http://sodipodi.sourceforge.net/DTD/sodipodi-0.dtd" xmlns:inkscape="http://www.inkscape.org/namespaces/inkscape" sodipodi:docname="Amazon.com-Logo.svg" inkscape:version="0.91 r13725"
	 xmlns="http://www.w3.org/2000/svg" xmlns:xlink="http://www.w3.org/1999/xlink" x="0px" y="0px" width="602.28px"
	 height="181.499px" viewBox="19.539 5.697 602.28 181.499" enable-background="new 19.539 5.697 602.28 181.499"
	 xml:space="preserve">
<sodipodi:namedview  inkscape:cy="60.382118" inkscape:cx="515.8293" inkscape:zoom="0.72245926" showgrid="false" guidetolerance="10" gridtolerance="10" pagecolor="#ffffff" borderopacity="1" bordercolor="#666666" objecttolerance="10" id="namedview19" inkscape:current-layer="svg1936" inkscape:window-maximized="1" inkscape:window-y="-8" inkscape:window-x="-8" inkscape:window-width="1280" inkscape:window-height="706" inkscape:pageshadow="2" inkscape:pageopacity="0">
	</sodipodi:namedview>
<g id="layer1" transform="translate(164.07345,-644.18026)">
	<g>
		<path fill="#FFFFFF" d="M224.022,783.636c-39.221,16.647-81.875,24.67-120.65,24.67c-57.494,0-113.152-15.757-158.167-41.947
			c-3.933-2.307-6.869,1.73-3.592,4.692c41.711,37.674,96.845,60.325,158.088,60.325c43.677,0,94.406-13.764,129.406-39.561
			C234.902,787.516,229.947,781.118,224.022,783.636z"/>
		<path fill="#FFFFFF" d="M201.947,769.085c-3.093,2.149-2.569,5.139,0.865,4.719c11.273-1.337,36.39-4.352,40.846,1.363
			c4.483,5.742-4.98,29.363-9.201,39.902c-1.285,3.198,1.468,4.483,4.352,2.071c18.798-15.704,23.621-48.606,19.794-53.352
			C254.774,759.071,221.951,755.007,201.947,769.085z"/>
		<path fill="#FFFFFF" d="M270.452,729.157c-10.696-6.029-23.149-7.786-34.947-7.498l31.749-45.328
			c2.937-4.063,4.588-6.633,4.614-8.6v-11.719c0-2.045-1.573-3.461-3.539-3.461h-61.27c-1.888,0-3.46,1.39-3.46,3.461v13.686
			c0,2.045,1.572,3.434,3.539,3.434h32.011l-36.782,52.749c-2.229,3.382-2.255,7.184-2.255,9.411v13.869
			c0,1.992,2.229,4.3,4.353,3.146c20.842-11.064,45.879-9.989,64.729-0.105c2.307,1.206,4.509-1.127,4.509-3.12v-14.603
			C273.519,732.513,272.864,730.52,270.452,729.157z"/>
		<path fill="#FFFFFF" d="M-38.54,755.085h18.64c1.993,0,3.592-1.547,3.592-3.461v-50.703c0-11.063-0.524-26.374,12.873-26.374
			c13.239,0,11.483,15.704,11.483,26.374l0.026,50.703c0,1.836,1.468,3.33,3.355,3.461h18.614c1.992,0,3.592-1.547,3.592-3.461
			v-50.703c0-5.427-0.184-13.502,1.73-18.325c1.914-4.824,6.633-7.839,11.142-7.839c5.401,0,9.569,1.809,10.959,8.231
			c0.891,3.828,0.524,13.896,0.524,17.933v50.703c0,1.836,1.494,3.33,3.355,3.461h18.614c1.992,0,3.591-1.547,3.591-3.461
			l0.026-60.377c0-10.251,1.206-21.943-4.693-29.992c-5.217-7.235-13.764-10.46-21.576-10.46c-10.985,0-21.236,5.636-25.745,17.722
			c-5.244-12.086-12.532-17.722-24.198-17.722c-11.483,0-20.003,5.636-24.539,17.722h-0.341v-12.505
			c-0.131-1.73-1.573-3.12-3.382-3.198h-17.382c-1.992,0-3.592,1.521-3.592,3.435v95.665
			C-41.738,753.617-40.322,754.954-38.54,755.085z"/>
		<path fill="#FFFFFF" d="M324.616,650.795c-26.977,0-41.948,23.149-41.948,52.932c0,29.599,14.787,53.351,41.948,53.351
			c26.086,0,42.629-23.149,42.629-52.328C367.245,674.547,352.275,650.795,324.616,650.795z M324.616,737.363
			c-14.629,0-14.446-24.958-14.446-36.651c0-11.666,0.865-30.385,14.602-30.385c5.926,0,10.094,2.596,12.191,9.254
			c2.438,7.656,2.779,17.304,2.779,25.378C339.743,717.228,339.062,737.363,324.616,737.363z"/>
		<path fill="#FFFFFF" d="M452.868,662.068c-5.242-8.258-13.396-11.272-21.76-11.272c-12.873,0-20.188,6.239-25.404,19.321h-0.34
			v-14.629c-0.367-1.494-1.705-2.596-3.33-2.674h-17.277c-1.887,0-3.434,1.363-3.592,3.119l0.027,95.691
			c0,1.836,1.494,3.33,3.355,3.461h18.561c1.992,0,3.619-1.547,3.645-3.461v-51.516c0-6.449,0.342-12.27,2.963-18.116
			c2.07-4.614,6.24-7.655,10.775-7.655c12.871,0,11.666,15.311,11.666,25.771v51.962c0.184,1.625,1.6,2.884,3.303,3.015h18.693
			c1.836,0,3.383-1.337,3.592-3.015V691.85C457.745,682.596,457.745,669.723,452.868,662.068z"/>
		<path fill="#FFFFFF" d="M154.758,690.409c-10.802,1.232-24.933,2.019-35.052,6.476c-11.693,5.033-19.873,15.337-19.873,30.464
			c0,19.374,12.191,29.049,27.895,29.049c13.239,0,20.502-3.12,30.727-13.555c3.382,4.902,4.509,7.288,10.696,12.427
			c1.39,0.734,3.172,0.655,4.404-0.445l0.026,0.053c3.723-3.304,10.486-9.202,14.288-12.375c1.521-1.258,1.259-3.277,0.079-4.955
			c-3.408-4.719-7.026-8.547-7.026-17.276v-29.049c0-12.296,0.865-23.595-8.206-32.063c-7.157-6.869-19.007-9.281-28.078-9.281
			c-17.723,0-37.542,6.606-41.685,28.524c-0.445,2.333,1.259,3.565,2.779,3.906l18.063,1.939c1.704-0.078,2.936-1.73,3.25-3.408
			c1.547-7.55,7.865-11.194,14.97-11.194c3.854,0,8.206,1.416,10.461,4.851c2.622,3.827,2.281,9.07,2.281,13.501V690.409z
			 M151.27,729.157c-2.963,5.244-7.682,8.469-12.898,8.469c-7.157,0-11.352-5.453-11.352-13.502
			c0-15.888,14.236-18.771,27.738-18.771v4.038C154.758,716.652,154.94,722.707,151.27,729.157z"/>
		<path fill="#FFFFFF" d="M-56.42,737.546c-3.408-4.719-7.026-8.547-7.026-17.276v-29.049c0-12.296,0.865-23.595-8.206-32.063
			c-7.157-6.869-19.007-9.281-28.078-9.281c-17.723,0-37.517,6.606-41.685,28.524c-0.419,2.333,1.259,3.565,2.779,3.906
			l18.089,1.939c1.678-0.078,2.91-1.73,3.225-3.408c1.547-7.55,7.892-11.194,14.996-11.194c3.828,0,8.18,1.416,10.461,4.851
			c2.595,3.827,2.254,9.07,2.254,13.501v2.412c-10.801,1.232-24.932,2.019-35.052,6.476c-11.667,5.033-19.873,15.337-19.873,30.464
			c0,19.374,12.217,29.049,27.895,29.049c13.266,0,20.502-3.12,30.727-13.555c3.408,4.902,4.509,7.288,10.696,12.427
			c1.39,0.734,3.172,0.655,4.404-0.445l0.053,0.053c3.723-3.304,10.486-9.202,14.288-12.375
			C-54.951,741.243-55.214,739.224-56.42,737.546z M-93.097,729.157c-2.962,5.244-7.655,8.469-12.899,8.469
			c-7.157,0-11.326-5.453-11.326-13.502c0-15.888,14.236-18.771,27.711-18.771v4.038C-89.61,716.652-89.426,722.707-93.097,729.157z
			"/>
	</g>
</g>
</svg>
