<?xml version="1.0" encoding="utf-8"?>
<!-- Generator: Adobe Illustrator 16.0.0, SVG Export Plug-In . SVG Version: 6.00 Build 0)  -->
<!DOCTYPE svg PUBLIC "-//W3C//DTD SVG 1.1//EN" "http://www.w3.org/Graphics/SVG/1.1/DTD/svg11.dtd">
<svg version="1.1" id="digitalocean-Page_x25_201" xmlns="http://www.w3.org/2000/svg" xmlns:xlink="http://www.w3.org/1999/xlink"
	 x="0px" y="0px" width="450px" height="76.001px" viewBox="175 161.999 450 76.001"
	 enable-background="new 175 161.999 450 76.001" xml:space="preserve">
<path fill="none" d="z"/>
<g id="Layer_x25_201">
	<g>
		<path fill="#FFFFFF" d="M213,238v-14.717c15.586,0,27.558-15.458,21.608-31.877c-2.204-6.083-7.045-10.933-13.115-13.139
			c-16.383-5.958-31.804,6.114-31.807,21.729c0,0-0.001,0.003-0.003,0.003H175c0-24.882,23.988-44.256,50.007-36.117
			c11.37,3.557,20.405,12.612,23.955,24.006c8.123,26.073-11.21,50.11-36.041,50.11H213z"/>
		<path fill="#FFFFFF" d="M212.688,223H198v-13.997c0,0,0.001-0.003,0.002-0.003h14.995c0.001,0,0.002,0.001,0.002,0.001V223
			H212.688z"/>
		<path fill="#FFFFFF" d="M198.309,235h-11.307L187,234.592V223h11v11.271L197.997,235H198.309z"/>
		<path fill="#FFFFFF" d="M187,223h-8.993c-0.004,0-0.007,0.317-0.007,0.317v-9.312c0,0,0.003-0.006,0.007-0.006h8.986
			c0.003,0,0.007,0.003,0.007,0.003v9.317V223z"/>
		<path fill="#FFFFFF" d="M288,187h4.314c4.8,0,8.986,0.757,11.982,2.626c3.326,2.01,5.014,5.833,5.014,11.364
			c0,5.697-1.691,9.693-5.025,11.881l-0.002,0.262c-2.87,1.902-6.798,2.867-11.674,2.867H288V187z M310.012,183.55
			c-4.342-3.02-9.746-4.55-16.061-4.55H280v44h13.745c6.299,0,11.911-1.615,16.272-4.799c2.373-1.688,4.237-3.922,5.542-6.883
			c1.298-2.947,1.957-6.421,1.957-10.328c0-3.86-0.659-7.291-1.957-10.195c-1.306-2.918-3.172-5.213-5.548-6.821V183.55z"/>
		<path fill="#FFFFFF" d="M327.085,178.886c-1.321,0-2.46,0.47-3.376,1.389c-0.929,0.886-1.399,2.008-1.399,3.335
			c0,1.325,0.469,2.464,1.393,3.39c0.923,0.926,2.062,1.396,3.383,1.396c1.319,0,2.458-0.47,3.383-1.396
			c0.925-0.927,1.393-2.066,1.393-3.39c0-1.326-0.471-2.448-1.393-3.329C329.543,179.356,328.404,178.886,327.085,178.886
			L327.085,178.886z"/>
		<path fill="#FFFFFF" d="M323.126,223H331v-31h-8v30.654L323.126,223z"/>
		<path fill="#FFFFFF" d="M356.915,213.096c-1.351,1.537-3.085,2.282-5.301,2.282c-2.217,0-3.941-0.745-5.272-2.28
			c-1.325-1.528-1.998-3.553-1.998-6.021c0-2.506,0.673-4.558,1.999-6.095c1.313-1.524,3.086-2.296,5.271-2.296
			c2.214,0,3.948,0.751,5.301,2.298c1.345,1.539,2.028,3.589,2.028,6.093C358.943,209.543,358.26,211.568,356.915,213.096z
			 M359,194.917c-2.331-2.078-4.991-3.29-7.805-3.29c-4.266,0-7.813,1.479-10.538,4.393c-2.761,2.891-4.161,6.611-4.161,11.056
			c0,4.345,1.379,8.053,4.103,11.025c2.747,2.876,6.487,4.334,10.773,4.334c2.979,0,5.542-0.831,7.628-2.474v0.709
			c0,2.554-0.683,4.541-2.027,5.904s-3.385,2.054-5.717,2.054c-3.568,0-5.804-1.405-8.526-5.092l-5.263,5.067l0.143,0.199
			c1.137,1.6,2.877,3.164,5.176,4.65c2.299,1.48,5.189,2.233,8.59,2.233c4.588,0,8.749-1.417,11.482-4.212
			c2.748-2.81,4.143-6.57,4.143-11.178V192h-8v2.571V194.917z"/>
		<path fill="#FFFFFF" d="M373.105,223H381v-31h-8v30.654L373.105,223z"/>
		<path fill="#FFFFFF" d="M377.104,178.886c-1.321,0-2.459,0.47-3.376,1.389c-0.928,0.886-1.398,2.008-1.398,3.335
			c0,1.325,0.469,2.464,1.393,3.39c0.923,0.926,2.061,1.396,3.382,1.396c1.32,0,2.459-0.47,3.383-1.396
			c0.925-0.927,1.393-2.066,1.393-3.39c0-1.326-0.47-2.448-1.393-3.329C379.563,179.356,378.425,178.886,377.104,178.886
			L377.104,178.886z"/>
		<path fill="#FFFFFF" d="M397.774,184H390v8h-4v7h4v12.785c0,4,0.797,7.268,2.371,8.912c1.578,1.65,4.606,2.488,8.555,2.488
			c1.255,0,2.49-0.042,3.726-0.123L405,223.04V216h-2.651c-1.839,0-2.873-0.324-3.458-0.962c-0.591-0.648-0.891-1.894-0.891-3.946
			V199h7v-7h-7v-8.346L397.774,184z"/>
		<path fill="#FFFFFF" d="M441.003,223H449v-44h-8v43.575L441.003,223z"/>
		<path fill="#FFFFFF" d="M527.08,212.119c-1.383,1.553-2.798,2.898-3.887,3.599v0.001c-1.068,0.688-2.417,1.036-4.008,1.036
			c-2.277,0-4.108-0.831-5.601-2.543c-1.483-1.702-2.235-3.89-2.235-6.507c0-2.615,0.742-4.801,2.207-6.491
			c1.472-1.701,3.293-2.527,5.568-2.527c2.49,0,5.115,1.551,7.364,4.216l5.108-4.909l0,0c-3.331-4.343-7.58-6.365-12.65-6.365
			c-4.244,0-7.923,1.549-10.933,4.603c-2.995,3.031-4.515,6.893-4.515,11.475s1.518,8.453,4.51,11.504
			c2.995,3.056,6.675,4.604,10.938,4.604c5.597,0,10.111-2.421,13.156-6.855L527.08,212.119L527.08,212.119z"/>
		<path fill="#FFFFFF" d="M541.908,204c0.372-1.471,1.049-2.698,2.019-3.65c1.048-1.033,2.41-1.664,4.052-1.664
			c1.874,0,3.323,0.642,4.311,1.697c0.914,0.978,1.43,2.192,1.538,3.616H541.908z M558.801,196.646
			c-1.096-1.53-2.588-2.762-4.438-3.663c-1.844-0.899-3.993-1.355-6.387-1.355c-4.313,0-7.844,1.596-10.495,4.744
			c-2.573,3.125-3.877,7.007-3.877,11.542c0,4.665,1.432,8.525,4.253,11.476c2.807,2.936,6.563,4.424,11.164,4.424
			c5.212,0,9.488-2.112,12.712-6.278l0.174-0.225l-5.042-4.855l0,0c-0.469,0.564-1.13,1.205-1.734,1.777
			c-0.764,0.721-1.48,1.279-2.247,1.662c-1.155,0.576-2.451,0.86-3.899,0.86c-2.143,0-3.915-0.835-5.271-2.079
			c-1.269-1.165-2.01-2.736-2.206-4.676H562v-2.826c0-2.001-0.271-3.725-0.808-5.527
			C560.656,199.842,559.886,198.16,558.801,196.646L558.801,196.646z"/>
		<path fill="#FFFFFF" d="M574.76,211.363c0.877-0.612,1.807-0.922,3.373-0.922c1.86,0,3.834,0.375,5.867,1.114v3.019
			c-1.681,1.565-3.923,2.359-6.672,2.359c-1.338,0-2.068-0.299-2.784-0.887c-0.702-0.577-1.042-1.311-1.042-2.24
			C573.502,212.751,573.913,211.951,574.76,211.363L574.76,211.363z M588.482,194.649L588.482,194.649
			c-2.343-2.004-5.581-3.021-9.623-3.021c-2.571,0-4.977,0.566-7.152,1.672c-2.012,1.022-3.988,2.716-5.244,4.933l0.078,0.094
			l4.949,4.747c2.039-3.257,4.306-4.388,7.311-4.388c1.614,0,2.647,0.434,3.677,1.29c1.024,0.85,1.522,1.931,1.522,3.301v1.496
			c-1.916-0.585-3.827-0.881-5.688-0.881c-3.846,0-6.666,0.906-8.992,2.695c-2.354,1.811-3.548,4.4-3.548,7.698
			c0,2.892,1.007,5.241,2.998,6.987c2.009,1.684,4.092,2.54,7.035,2.54c2.942,0,5.695-1.188,8.194-3.224V223h8v-19.787
			c0-3.746-1.196-6.544-3.556-8.564H588.482z"/>
		<path fill="#FFFFFF" d="M621.771,195.252c-2.152-2.404-5.537-3.624-9.352-3.624c-3.066,0-5.557,0.882-7.419,2.624V192h-8v31h8
			v-16.975c0-2.332,0.555-4.059,1.646-5.38c1.089-1.318,3.096-1.959,5.087-1.959c1.75,0,2.807,0.572,3.785,1.75
			c0.983,1.183,1.481,2.812,1.481,4.847V223h8v-17.842C625,200.896,623.914,197.646,621.771,195.252L621.771,195.252z"/>
		<path fill="#FFFFFF" d="M417.832,211.363c0.877-0.612,1.734-0.922,3.301-0.922c1.86,0,3.833,0.375,5.867,1.114v3.019
			c-1.68,1.565-3.924,2.359-6.672,2.359c-1.338,0-1.996-0.299-2.71-0.887c-0.702-0.577-1.044-1.311-1.044-2.24
			C416.574,212.751,416.986,211.951,417.832,211.363L417.832,211.363z M431.555,194.649L431.555,194.649
			c-2.343-2.004-5.581-3.021-9.623-3.021c-2.571,0-4.976,0.566-7.151,1.672c-2.013,1.022-3.989,2.716-5.244,4.933l0.077,0.094
			l4.949,4.747c2.039-3.257,4.306-4.388,7.311-4.388c1.614,0,2.574,0.434,3.604,1.29c1.024,0.85,1.523,1.931,1.523,3.301v1.496
			c-1.917-0.585-3.828-0.881-5.688-0.881c-3.846,0-6.594,0.906-8.918,2.695c-2.354,1.811-3.549,4.4-3.549,7.698
			c0,2.892,1.007,5.241,2.999,6.987c2.009,1.684,4.019,2.54,6.962,2.54c2.942,0,5.695-1.188,8.194-3.224V223h8v-19.787
			c0-3.746-1.196-6.544-3.556-8.564H431.555z"/>
		<path fill="#FFFFFF" d="M477.04,186.667c-8.027,0-14.559,6.544-14.559,14.588c0,8.045,6.531,14.589,14.559,14.589
			s14.559-6.544,14.559-14.589C491.599,193.21,485.067,186.667,477.04,186.667z M477.04,223.783
			c-12.397,0-22.481-10.105-22.481-22.528c0-12.422,10.084-22.528,22.481-22.528c12.396,0,22.48,10.105,22.48,22.528
			C499.521,213.678,489.436,223.783,477.04,223.783L477.04,223.783z"/>
	</g>
</g>
<path fill="none" d="z"/>
</svg>
