<?xml version="1.0" encoding="utf-8"?>
<!-- Generator: Adobe Illustrator 16.0.0, SVG Export Plug-In . SVG Version: 6.00 Build 0)  -->
<!DOCTYPE svg PUBLIC "-//W3C//DTD SVG 1.1//EN" "http://www.w3.org/Graphics/SVG/1.1/DTD/svg11.dtd">
<svg version="1.1" id="Layer_1" xmlns="http://www.w3.org/2000/svg" xmlns:xlink="http://www.w3.org/1999/xlink" x="0px" y="0px"
	 width="30px" height="30px" viewBox="-6 -6 30 30" enable-background="new -6 -6 30 30" xml:space="preserve">
<path fill="#FFFFFF" d="M9.997,6.23V-6L-1.201-4.25V7.745c-0.449,0-1.044,0.021-2.174,0.065C-5.505,7.891-6,8.911-6,9.896
	c0,1.262,0.675,2.201,3.129,2.096c2.639-0.117,2.514-2.479,2.514-4.174v-8.166l9.549-1.618v8.122c-0.448,0-0.994,0.019-2.129,0.065
	C4.934,6.301,4.438,7.323,4.438,8.311c0,1.258,0.649,2.199,3.109,2.092C10.197,10.289,9.997,7.926,9.997,6.23z"/>
</svg>
